<?xml version="1.0" encoding="UTF-8"?>
<svg width="24px" height="24px" viewBox="0 0 24 24" version="1.1" xmlns="http://www.w3.org/2000/svg" xmlns:xlink="http://www.w3.org/1999/xlink">
    <title>star-half-filled</title>
    <g id="star-half-filled" stroke="none" stroke-width="1" fill="none" fill-rule="evenodd">
        <path d="M16.5945,20.9997 C16.3395,20.9997 16.0845,20.9357 15.8515,20.8067 L12.0205,18.7007 L8.1495,20.8067 C7.6285,21.0937 7.0025,21.0577 6.5175,20.7147 C6.0105,20.3557 5.7595,19.7477 5.8605,19.1267 L6.5925,14.6637 C6.5995,14.6217 6.5875,14.5777 6.5615,14.5507 L3.4625,11.3927 C3.0345,10.9547 2.8905,10.3197 3.0855,9.7337 C3.2755,9.1627 3.7565,8.7537 4.3395,8.6647 L8.6215,8.0137 L10.5885,3.9077 C10.8525,3.3477 11.3935,2.9997 12.0005,2.9997 C12.6065,2.9997 13.1485,3.3477 13.4125,3.9077 L15.3285,7.9667 L19.6605,8.6647 C20.2435,8.7537 20.7245,9.1627 20.9145,9.7337 C21.1105,10.3187 20.9665,10.9547 20.5385,11.3917 L17.4385,14.5517 C17.4135,14.5777 17.4015,14.6217 17.4085,14.6627 L18.1405,19.1267 C18.2415,19.7487 17.9895,20.3567 17.4825,20.7147 C17.2155,20.9037 16.9045,20.9997 16.5945,20.9997" id="Path" fill="#f2f2f2"></path>
        <path d="M12,18.701 L8.14948267,20.8094924 C7.62848267,21.0964924 7.00248267,21.0604924 6.51748267,20.7174924 C6.01048267,20.3584924 5.75948267,19.7504924 5.86048267,19.1294924 L6.59248267,14.6664924 C6.59948267,14.6244924 6.58748267,14.5804924 6.56148267,14.5534924 L3.46248267,11.3954924 C3.03448267,10.9574924 2.89048267,10.3224924 3.08548267,9.73649238 C3.27548267,9.16549238 3.75648267,8.75649238 4.33948267,8.66749238 L8.62148267,8.01649238 L10.5884827,3.91049238 C10.8524827,3.35049238 11.373,3 11.98,3 C11.9796782,4.18897204 11.9863449,9.42263871 12,18.701 Z" id="Path" fill="#FFCA3A"></path>
    </g>
</svg>